<?xml version="1.0" encoding="utf-8"?>
<!-- Generator: Adobe Illustrator 25.0.0, SVG Export Plug-In . SVG Version: 6.00 Build 0)  -->
<svg version="1.1" id="Layer_1" xmlns="http://www.w3.org/2000/svg" xmlns:xlink="http://www.w3.org/1999/xlink" x="0px" y="0px"
	 viewBox="0 0 150 69.8" style="enable-background:new 0 0 150 69.8;" xml:space="preserve">
<style type="text/css">
	.st0{fill:#FFFFFF;}
	.st1{fill:#00B3FD;}
	.st2{fill:#FFCC02;}
	.st3{fill:#86E6FC;}
</style>
<path class="st0" d="M-79.2,31.7c0-0.2-0.1-0.3-0.1-0.5c0-0.1,0-0.1,0-0.2c-0.2-0.8-0.7-1.6-1.5-2.3c-0.1-0.1-0.1-0.1-0.2-0.2
	s-0.1-0.1-0.2-0.2c-0.8-0.7-1.8-1.3-3-2v-0.1v-0.1c0-0.2,0-0.4,0-0.6v-0.1v-0.1c0-0.2,0-0.5,0-0.7v-0.1v-0.1c0-0.3,0-0.7,0-1v-0.1
	v-0.1c0-0.4,0-0.8,0-1.2v-0.1v-0.1c0-0.4,0-0.9,0-1.3c0-0.1,0-0.1,0-0.2v-0.1c-0.1-1-0.2-1.8-0.4-2.5c0,0,0-0.1-0.1-0.1
	c0-0.1-0.1-0.2-0.1-0.3c-0.9-2.5-2.9-2.7-3.5-2.7c-0.9,0-1.8,0.3-2.6,1c-0.1,0.1-0.1,0.1-0.2,0.2l-0.1,0.1c-0.2,0.2-0.4,0.4-0.6,0.7
	l-0.4,0.5L-93,18l-0.1,0.1c0,0-0.1,0-0.1,0.1c-0.3,0.3-0.5,0.6-0.8,0.9l-0.1,0.1c0,0-0.1,0-0.1,0.1c-0.2,0.2-0.4,0.4-0.6,0.6
	c0,0,0,0.1-0.1,0.1c0,0-0.1,0-0.1,0.1c-0.2,0.2-0.4,0.4-0.5,0.5c0,0,0,0.1-0.1,0.1c0,0,0,0-0.1,0c-0.2,0.1-0.3,0.2-0.4,0.3
	s-0.1,0-0.1-0.1c-0.1,0-0.1-0.1-0.2-0.1c-0.3-0.2-0.6-0.4-0.9-0.5l-0.1-16.4c0-0.7-0.3-1.4-0.8-2c-0.5-0.5-1.2-0.8-2-0.8l-64.4,0.2
	c-0.3,0-0.6,0.1-0.9,0.2c-0.3-0.1-0.6-0.2-0.9-0.2l-9.6,0.1c-0.7,0-1.3,0.2-1.8,0.7L-192,14.3c-0.6,0.5-0.9,1.2-1,1.9
	c-0.1,0.7,0.2,1.5,0.7,2l6.3,7.2c0.5,0.6,1.3,0.9,2.1,0.9c0.6,0,1.2-0.2,1.7-0.6l1.2-0.9l0.2,41.2c0,0.7,0.3,1.4,0.8,2
	c0.5,0.5,1.2,0.8,2,0.8l12-0.1c0.3,0,0.6-0.1,0.9-0.2c0.3,0.1,0.6,0.2,0.9,0.2l64.5-0.3c1.5,0,2.8-1.3,2.8-2.8L-97,38.1
	c0,0.2,0.1,0.4,0.1,0.6c0.1,0.3,0.1,0.7,0.2,1v0.2V40c0.3,1.3,0.7,3,1.9,4.2c0.7,0.7,1.6,1.1,2.5,1.1c2.5,0,3.8-2.6,4.3-3.6v-0.1
	l0.1-0.1c0.3-0.6,0.6-1.3,0.9-2.1v-0.1c0,0,0-0.1,0.1-0.1c0.1-0.4,0.3-0.7,0.4-1v-0.1c0-0.1,0.1-0.1,0.1-0.2
	c0.1-0.3,0.2-0.5,0.3-0.8h0.2h0.4c1.2-0.2,2.3-0.4,3.1-0.8c0.1,0,0.2-0.1,0.3-0.1s0.1,0,0.2-0.1c0.7-0.3,1.2-0.7,1.7-1.1
	c0.1-0.1,0.2-0.3,0.3-0.4l0.2-0.2C-79.4,33.5-79.1,32.6-79.2,31.7L-79.2,31.7z"/>
<path class="st1" d="M-190.2,16.4l6.3,7.2l5.7-4.3L-178,66l12-0.1l-0.4-61.8l-9.6,0.1L-190.2,16.4z"/>
<path class="st1" d="M-164.5,4.1l0.3,61.8l64.5-0.3L-100,3.8L-164.5,4.1z M-107.1,49.5v4.6h2.4v6.6c-3.4-0.1-3.5-2.3-3.5-4.1
	c0-1.3,0-2.7,0-4.2c0-3.1,0-6.1,0-7.5c0-2.3,0-3.7,3.7-3.7h3.3v8.2L-107.1,49.5z M-107.8,35.6c-3.5,0-6.1,3-6.1,7s0.1,12.7,0.1,16.4
	c0,2.5,1,4.3,2.4,5.2h-3.4l-0.1-27.9c0-0.4-0.3-0.7-0.7-0.7h-4.5c-0.4,0-0.7,0.3-0.7,0.7l0.1,14.5l-4.7-14.7
	c-0.1-0.3-0.3-0.5-0.6-0.5h-5c-0.4,0-0.7,0.3-0.7,0.7l0.1,27.9h-8.2c0.9-0.5,1.6-1.2,2.3-1.9c2.6-2.7,3.8-6.7,3.8-11.7l-0.2-31.7
	c0-5-1.4-8.9-3.9-11.6c-0.8-0.8-1.6-1.5-2.6-2.1h8.5l0.2,28.2c0,0.4,0.3,0.7,0.7,0.7h4.7c0.4,0,0.7-0.3,0.7-0.7l-0.1-12.2l3.3,12.3
	c0.1,0.3,0.4,0.5,0.7,0.5h3.8c0.3,0,0.6-0.2,0.7-0.5l2.7-11.8l0.1,11.6c0,0.4,0.3,0.7,0.7,0.7h4.7c0.4,0,0.7-0.3,0.7-0.7l-0.2-28.2
	h1.6l0.2,28.2c0,0.4,0.3,0.7,0.7,0.7h4.7v1.7C-102.5,35.7-105.2,35.6-107.8,35.6z M-121,64.3h-4.7l-0.1-13.8L-121,64.3z
	 M-153.2,18.6c0-3.7,1.4-5.5,4.4-5.5c3,0,4.4,1.7,4.5,5.5l0.2,32.9c0,3.7-1.4,5.5-4.4,5.5s-4.4-1.7-4.5-5.5L-153.2,18.6z
	 M-123.6,5.3h7.2l-3.4,16.9L-123.6,5.3z M-157.4,5.5c-1,0.6-1.8,1.3-2.6,2.1c-1.5,1.6-2.5,3.6-3.2,5.9v-8H-157.4z M-162.9,56.7
	c0.6,2.3,1.7,4.3,3.2,5.9c0.7,0.7,1.5,1.4,2.3,1.9h-5.5V56.7z"/>
<g>
	<path class="st2" d="M-99.2,34.9c1.5-0.5,2.8-1,3.4-0.6c0.5,0.3,0.9,0.9,1.1,1.6c0.9,0.2,1.9,0.4,2.8,0.6c1,0.1,1.9,0.2,2.9,0.4
		c0.2-0.6,0.4-1.2,0.5-1.6c-3.9-0.7-7.8-1.3-11.7-2.1c-1.1-0.2-2.1-0.4-3.2-0.7c-0.2,0.5-0.4,0.9-0.6,1.3
		C-102.4,34.2-100.8,34.5-99.2,34.9L-99.2,34.9z"/>
	<path class="st2" d="M-104.4,35.2c0.9,0.2,1.9,0.4,2.8,0.7c0.4-0.1,0.8-0.3,1.2-0.4c-1.3-0.3-2.6-0.5-3.9-0.8
		C-104.4,34.8-104.4,35-104.4,35.2z"/>
	<path class="st2" d="M-104.3,34.4c0.1,0,0.3,0.1,0.4,0.1c1.2,0.3,2.5,0.5,3.8,0.8c0.2-0.1,0.4-0.1,0.6-0.2
		c-1.5-0.4-3.1-0.7-4.6-1.1C-104.2,34.1-104.2,34.3-104.3,34.4z"/>
	<path class="st2" d="M-89.5,38.2c0.1-0.3,0.2-0.7,0.4-1c-1-0.1-2-0.3-2.9-0.5c-0.8-0.1-1.7-0.2-2.5-0.3c0.1,0.3,0.1,0.6,0.2,0.9
		c0.2,0,0.5,0.1,0.7,0.1C-92.3,37.7-90.9,38-89.5,38.2z"/>
	<path class="st2" d="M-86.4,30.9c1.4,0.3,2.9,0.6,4.3,0.9c-0.1-0.3-0.3-0.7-0.8-1.1c-3.6-0.5-7.2-1.1-10.8-2
		c-2.4-0.6-4.8-1.2-7.1-1.8c0.3,0.5,0.5,0.9,0.6,1.2c2,0.5,4.1,0.9,6.1,1.4C-91.5,29.8-88.9,30.4-86.4,30.9L-86.4,30.9z"/>
	<path class="st2" d="M-84.7,30.2c0.5,0.1,1.1,0.2,1.6,0.2c-0.6-0.5-1.4-1.1-2.6-1.7c-5.3-0.6-10.7-1.4-15.7-3
		c0.2,0.3,0.4,0.6,0.5,0.9c0.1,0,0.2,0,0.3,0.1C-95.4,28-90.1,29.4-84.7,30.2z"/>
	<path class="st2" d="M-93.7,25.1c-2.5-0.6-4.9-1.3-7.3-2h-0.1c-0.6-0.2-1.2-0.3-1.8-0.5c0.2,0.5,0.5,1,0.8,1.6
		c1.3,0.3,2.6,0.6,4,0.9c2.2,0.5,4.5,1.1,6.8,1.6c1.4,0.3,2.8,0.5,4.3,0.7c0-0.2,0.1-0.6,0.1-1C-89.3,26.1-91.6,25.7-93.7,25.1z"/>
	<path class="st2" d="M-102.1,24.5c0,0.1,0.1,0.2,0.1,0.2c0.1,0.2,0.3,0.4,0.4,0.7c1.2,0.4,2.5,0.8,3.7,1.1c3.8,0.9,7.7,1.5,11.7,2
		c-0.3-0.2-0.7-0.4-1.1-0.6c0,0,0,0,0-0.1c-1.7-0.3-3.5-0.6-5.2-0.9C-95.6,26-98.8,25.1-102.1,24.5z"/>
	<path class="st2" d="M-87.3,18.1c-0.3-0.9-0.9-1.2-1.7-0.5C-88.4,17.7-87.9,17.9-87.3,18.1z"/>
	<path class="st2" d="M-90.8,19.6c1.3,0.1,2.6,0.4,3.9,0.6c-0.1-0.7-0.1-1.4-0.3-1.9c-0.7-0.2-1.3-0.4-2-0.6
		c-0.1,0.1-0.3,0.3-0.4,0.5C-90.1,18.7-90.5,19.2-90.8,19.6z"/>
	<path class="st2" d="M-91,19.8c-0.3,0.3-0.5,0.6-0.8,0.9c1.6,0.1,3.3,0.5,4.9,1c0-0.4,0-0.8,0-1.2C-88.3,20.2-89.6,20-91,19.8z"/>
	<path class="st2" d="M-92.7,21.7c-0.2,0.2-0.4,0.4-0.6,0.6c2.2,0.4,4.4,0.9,6.4,1.8c0-0.3,0-0.6,0-0.9
		C-88.8,22.7-90.8,22.2-92.7,21.7z"/>
	<path class="st2" d="M-86.9,23c0-0.4,0-0.7,0-1.1c-1.7-0.5-3.4-0.9-5.1-1c-0.2,0.2-0.4,0.5-0.6,0.7C-90.7,22-88.8,22.5-86.9,23z"/>
	<path class="st2" d="M-94.3,23.1c1.1,0.3,2.2,0.6,3.3,0.9c1.3,0.4,2.7,0.7,4,1.1c0-0.2,0-0.5,0-0.7c-0.7-0.3-1.5-0.5-2.3-0.8
		c-1.4-0.4-2.9-0.8-4.4-1C-93.8,22.8-94.1,22.9-94.3,23.1z"/>
	<path class="st2" d="M-94.5,23.2c-0.4,0.2-0.7,0.3-1.1,0.4c2.9,0.7,5.6,1.6,8.5,2.2c0-0.2,0-0.4,0-0.6
		C-89.5,24.6-92,23.9-94.5,23.2z"/>
	<path class="st2" d="M-99.1,22.2c-0.1,0-0.2,0-0.3-0.1c-1.3-0.3-2.6-0.6-3.9-0.8c0,0.3,0.1,0.6,0.3,1.1c0.7,0.2,1.4,0.4,2.1,0.6
		c1.3-0.1,2.6,0.1,3.8,0.3c-0.1-0.1-0.2-0.1-0.4-0.2C-98.1,22.7-98.6,22.4-99.1,22.2z"/>
	<path class="st2" d="M-99.8,21.8c-0.6-0.4-1.2-0.7-1.7-0.9c-0.5-0.1-1-0.2-1.6-0.3c-0.2,0.1-0.3,0.2-0.3,0.4
		C-102.2,21.3-101,21.5-99.8,21.8z"/>
	<path class="st2" d="M-91.3,25c-2.9-0.8-5.9-1.9-9-1.9c0.1,0,0.2,0,0.3,0.1c2.4,0.7,4.8,1.4,7.2,1.9c1.9,0.4,3.8,0.8,5.7,1.2
		c0-0.1,0-0.2,0-0.3C-88.5,25.8-89.9,25.4-91.3,25z"/>
	<path class="st2" d="M-96.2,32.2c2.2,0.5,4.4,0.9,6.6,1.3c1.2,0.2,2.4,0.4,3.6,0.7c0.8-0.1,1.7-0.3,2.5-0.6
		c-0.5-0.2-1.1-0.3-1.6-0.4c-1.9-0.5-3.9-0.8-5.8-1.2c-1-0.2-2-0.4-3-0.7c-1.6-0.3-3.2-0.7-4.7-1.1c-0.2-0.1-0.5-0.1-0.7-0.2
		c-0.6-0.1-1.2-0.3-1.9-0.5c-0.3,0.3-0.7,0.7-1.1,1.2C-100.3,31.2-98.3,31.7-96.2,32.2z"/>
	<path class="st2" d="M-86.6,34.3c-1.4-0.3-2.9-0.6-4.3-0.8c-2.2-0.4-4.4-0.8-6.5-1.4c-1.7-0.4-3.4-0.8-5.1-1.2
		c-0.2,0.3-0.4,0.6-0.6,1c-0.1,0.1-0.2,0.3-0.2,0.4c3.8,0.8,7.7,1.5,11.6,2.2c1.1,0.2,2.2,0.4,3.3,0.6c0.1-0.4,0.2-0.7,0.2-0.7
		S-87.5,34.4-86.6,34.3z"/>
	<path class="st2" d="M-99.4,29.7c1.2,0.3,2.3,0.6,3.5,0.8c0.8,0.2,1.7,0.4,2.5,0.6c1.6,0.3,3.1,0.5,4.7,0.7
		c2.2,0.3,4.3,0.6,6.5,0.8c0.1-0.2,0.2-0.5,0.2-0.7c-4.4-0.8-8.8-1.8-13.1-2.7c-1.6-0.3-3.3-0.7-4.9-1.1c0.1,0.5-0.3,0.5-1,1
		C-100.4,29.4-99.9,29.6-99.4,29.7L-99.4,29.7z"/>
	<path class="st2" d="M-83.2,33.5c0.3-0.2,0.6-0.3,0.8-0.6c-2.1-0.2-4.1-0.4-6.2-0.7c1.7,0.3,3.3,0.7,5,1.1
		C-83.5,33.4-83.3,33.4-83.2,33.5z"/>
	<path class="st2" d="M-93.2,39.7c-0.3-0.1-0.6-0.1-0.8-0.2c0.2,1.1,0.5,2.1,1.2,2.8s1.6-0.3,2.4-1.9
		C-91.3,40.2-92.2,39.9-93.2,39.7z"/>
	<path class="st2" d="M-102,36c-0.8-0.2-1.6-0.4-2.4-0.6C-104.4,36.5-103.4,36.4-102,36z"/>
	<path class="st2" d="M-89.6,38.4c-1.5-0.3-3-0.5-4.5-0.8c-0.1,0-0.1,0-0.2,0c0.1,0.6,0.2,1.1,0.3,1.7c1.2,0.3,2.5,0.6,3.7,1
		C-90.1,39.7-89.8,39-89.6,38.4z"/>
</g>
<g>
	<g>
		<path class="st0" d="M110.4,29.3c-0.1-0.6-0.2-1.2-0.3-1.8c0-0.2-0.3-0.1-0.2,0c0.9,4.7,0.4,9.4-1.1,13.7c-1.5,4.2-3.9,7.9-7,10.9
			c1.8-2.7,3.3-5.7,4.4-8.9c1.6-4.6,2.3-9.6,1.7-14.7c-0.6-5-2.7-9.9-6.4-13.6c-2.1-2.1-4.5-3.7-7.1-5.1c-0.2-0.1-0.4-0.2-0.6-0.4
			c0,0-0.1-0.1-0.1-0.1c0,0-0.1,0-0.1,0c-0.2-0.1-0.3-0.2-0.5-0.3c-0.8-0.7-1.7-1.3-2.6-1.8c-1.5-0.9-3.1-1.5-4.8-1.8
			c-3.3-1.5-6.8-2.4-10.3-2.8c1.5-0.1,2.9-0.2,4.3-0.1c2,0.1,3.9,0.4,5.8,0.9c0.1,0,0.1-0.3,0.1-0.3C81.8,2.3,77.9,2,73.7,2.6
			c-3.8-0.3-7.6,0.1-11.3,1.1c-2.8,0.7-5.6,1.8-8.2,3.2c-0.1,0,0,0.2,0,0.1c5.8-3,11.9-4.4,18-4.2c-2.8,0.5-5.6,1.3-8.5,2.5
			c-2.2,0.9-4.5,2-6.8,3.4c-0.1,0-0.1,0.3,0,0.2c5.9-3.3,11.6-5.4,17-6.1c3.4,0.2,6.8,1,10,2.2c0,0,0.1,0,0.1,0
			C77.7,3.3,71,3.5,64.7,5.9c-2.4,0.9-4.7,2.1-6.9,3.6c-0.1,0,0,0.2,0.1,0.1C65,4.9,73.2,3.2,81.2,4.7c-2.1-0.2-4.1-0.1-6.1,0.2
			c-0.6,0-1.2,0-1.7,0.1c-5.1,0.3-10,1.9-14.3,4.4c-4.4,2.6-8.2,6.1-10.9,10.5c-1.4,2.2-2.4,4.7-3,7.3c-0.5,2.3-0.7,4.7-0.5,7.1
			c0.4,5.1,2.2,10.1,5.2,14.4c1.4,2,3,3.9,4.8,5.5c0.4,0.6,0.7,1.1,1.2,1.6c1.2,1.5,2.5,2.8,4,3.9c-0.1,0-0.1,0.2,0,0.2
			c0.6,0.4,1.2,0.7,1.9,1c0.2,0.1,0.4,0.3,0.7,0.4c1.7,2,3.7,3.7,6.1,4.7c4.5,1.8,9.5,1.4,13.7-0.2c1.1-0.1,2.1-0.4,3.1-0.7
			c5.1-1.5,9.5-4.8,13.1-8.7c0.8-0.8,1.5-1.7,2.2-2.6c3.5-3,6.3-6.7,8.1-11C110.3,38.7,111.1,34.1,110.4,29.3z M104.7,35.5
			c-0.1-0.3-0.1-0.6-0.2-0.8c-0.1-0.7-0.2-1.3-0.3-2c0.3-4.7-1.3-9.5-3.7-13.9c2.1,2.4,3.5,5.4,4.3,8.4c0.6,2.6,0.8,5.1,0.8,7.7
			c0,2-0.2,3.9-0.6,5.8C105.1,38.9,105,37.2,104.7,35.5z M100.8,48.7c0.6-0.4,1.1-0.9,1.6-1.4c-0.7,1.2-1.6,2.4-2.6,3.4
			C100.1,50.1,100.5,49.4,100.8,48.7z M98.1,51.7c0.2-0.3,0.4-0.7,0.6-1c0.3-0.3,0.5-0.7,0.8-1c0.1-0.2,0.3-0.4,0.4-0.6
			C99.4,50.1,98.8,50.9,98.1,51.7z M101,48.1c0.1-0.4,0.2-0.7,0.3-1.1c0.8-1.4,1.5-2.8,2.1-4.3c0.5-1.4,0.8-2.9,1-4.4
			c0,0.3,0,0.5,0,0.8c0,2.1-0.3,4.1-1,5.9C102.8,46.2,102,47.2,101,48.1z M101,45.2c0,0.5-0.1,1-0.2,1.5c-0.2,0.4-0.5,0.8-0.7,1.2
			C100.4,47,100.7,46.1,101,45.2z M98.3,50.3c-0.5,0.7-1.1,1.3-1.6,1.9c-0.7,0.8-1.5,1.6-2.2,2.4c-0.2,0.1-0.4,0.2-0.7,0.4
			c0.1-0.1,0.1-0.2,0.2-0.3c2.6-2.4,4.8-5.3,5.9-8.8c0.2-0.3,0.4-0.5,0.6-0.8C100,46.8,99.2,48.6,98.3,50.3z M96.3,15
			c-0.6-1.1-1.2-2.1-1.9-3.1c0.5,0.5,0.9,0.9,1.3,1.4c0.7,0.8,1.4,1.6,2,2.5C97.3,15.5,96.8,15.2,96.3,15z M96.7,13.7
			c-0.3-0.3-0.6-0.7-0.9-1c0.1,0.1,0.1,0.1,0.2,0.2C96.2,13.2,96.5,13.5,96.7,13.7z M94.5,10.4c0.1,0.1,0.3,0.1,0.4,0.2
			c3.7,3,6.7,6.8,8.8,11.1c-1.7-3.2-3.9-6-6.6-8.3C96.3,12.4,95.4,11.4,94.5,10.4z M92.5,9.4c0.9,0.7,1.7,1.5,2.5,2.3
			c-0.1-0.1-0.3-0.2-0.4-0.3c-0.6-0.6-1.3-1.2-1.9-1.8c-0.1-0.1-0.2-0.3-0.4-0.4C92.4,9.3,92.4,9.4,92.5,9.4z M91.6,56.7
			c0.1,0,0.2-0.1,0.3-0.1c-0.2,0.3-0.5,0.6-0.7,0.8c-0.1,0.1-0.3,0.1-0.4,0.2c-0.5,0.2-0.9,0.5-1.4,0.7
			C90.1,57.7,90.8,57.2,91.6,56.7z M54.3,18.3c-0.4,0.6-0.7,1.2-1,1.7c-0.1,0.2-0.2,0.4-0.3,0.6c1.3-3.2,3.2-6.1,5.9-8.2
			c-1.1,1.1-2.2,2.3-3.1,3.6c-0.1,0-0.1,0-0.2,0C55.1,16.9,54.7,17.6,54.3,18.3z M55.1,17.9c-0.3,0.5-0.5,1-0.8,1.5
			c-0.3,0.4-0.5,0.9-0.8,1.3c-0.1,0.1-0.2,0.3-0.2,0.4c0.2-0.4,0.3-0.8,0.5-1.2C54.3,19.2,54.7,18.5,55.1,17.9z M66.8,58.9
			c0.2,0.1,0.5,0.3,0.7,0.4c-0.3,0-0.6-0.1-0.9-0.1c-2.3-0.7-4.5-1.8-6.5-3.3c-0.5-0.4-0.9-0.9-1.3-1.3c1.3,1.2,2.7,2.3,4.3,3.1
			C64.3,58.3,65.5,58.7,66.8,58.9z M64.2,10.2c0.2-0.1,0.4-0.3,0.5-0.4c-0.1,0.1-0.1,0.1-0.2,0.2C64.4,10.1,64.3,10.2,64.2,10.2z
			 M73.9,61.1c1.3,0,2.6-0.1,3.9-0.2c0.7-0.1,1.5-0.2,2.3-0.3c0.5,0,1,0,1.5,0c0.2,0,0.3,0,0.5,0c0.3,0,0.6,0.1,0.8,0.2c0,0,0,0,0,0
			c-0.6,0.2-1.3,0.4-1.9,0.6C78.8,61.9,76.3,61.7,73.9,61.1z M76.9,61.9c-0.2,0-0.5,0-0.7,0c-0.6-0.1-1.3-0.3-1.9-0.4
			c0.8,0.2,1.6,0.3,2.4,0.4C76.7,61.9,76.8,61.9,76.9,61.9z M79.6,59.8c0.6-0.2,1.2-0.3,1.7-0.5c0.1,0,0.3,0,0.4,0
			C81,59.5,80.3,59.7,79.6,59.8z M80.1,9.9c0.2,0.1,0.4,0.1,0.6,0.2c-0.1,0-0.1,0-0.2,0c0,0,0,0-0.1,0C80.3,10.1,80.2,10,80.1,9.9z
			 M77.9,8.6c-0.2-0.1-0.4-0.2-0.7-0.3c0,0,0,0,0,0c1.4,0.4,2.7,0.9,4.1,1.5C80.2,9.3,79,8.9,77.9,8.6z M77.3,9.8
			c-0.2,0-0.5,0-0.7,0.1c-0.2,0-0.5,0-0.8-0.1c0.1-0.2,0.3-0.3,0.4-0.5C76.6,9.5,77,9.6,77.3,9.8z M77.2,60.3c0.2,0,0.3,0,0.5,0
			c0.3,0.1,0.6,0.1,0.9,0.1c-1.1,0.1-2.3,0.2-3.4,0.2c-0.8,0-1.7,0-2.5,0c0.8,0,1.6,0,2.4-0.1C75.7,60.6,76.4,60.5,77.2,60.3z
			 M71,61c0.7,0.3,1.5,0.6,2.2,0.8c-0.7-0.1-1.5-0.2-2.2-0.3c-1-0.2-2.1-0.6-3.1-0.9C68.9,60.8,69.9,60.9,71,61z M66,59.8
			c-0.2-0.1-0.5-0.2-0.7-0.4c0,0,0,0,0,0c0.3,0.1,0.5,0.2,0.8,0.2c1.1,0.4,2.3,0.6,3.5,0.8C68.4,60.3,67.2,60.1,66,59.8z M71.5,59.9
			c0.3,0,0.6,0,0.9-0.1c0.1,0,0.2,0,0.3,0.1C72.3,59.9,71.9,59.9,71.5,59.9z M72.1,10.5c-1.4-0.2-2.7,0-4,0.4c0,0-0.1,0-0.1,0
			c1.4-0.6,3-1,4.6-0.9C72.4,10.2,72.3,10.3,72.1,10.5z M67.5,9c-0.5,0-0.9,0.1-1.3,0.2c0.2-0.2,0.4-0.4,0.7-0.6
			c0.8-0.1,1.7-0.2,2.5,0.1C68.8,8.7,68.1,8.8,67.5,9z M63.2,58.9c-0.6-0.2-1.2-0.5-1.8-0.7c0.5,0.2,1,0.4,1.5,0.6
			C63,58.8,63.1,58.9,63.2,58.9z M63.7,11.3c-0.2,0.3-0.4,0.6-0.6,1c-0.9,0.4-1.8,0.9-2.7,1.5c0.3-0.4,0.7-0.8,1-1.2
			c0.8-0.6,1.6-1.1,2.5-1.5C63.8,11.1,63.7,11.2,63.7,11.3z M62.7,9.6c-0.8,0.5-1.5,1-2.2,1.5c-0.2,0.1-0.4,0.2-0.6,0.3
			c-3.6,2.3-6.1,5.9-7.6,10c-0.2,0.6-0.4,1.2-0.6,1.8c-1.6,3.9-2.6,8.1-2.8,12.5c0,0.8-0.1,1.5-0.1,2.3c-0.2-1.1-0.3-2.3-0.4-3.4
			c-0.2-4.3,0.6-8.5,2.3-12.3c0.9-2.1,2.2-4,3.6-5.7c0.1-0.1,0-0.2-0.1-0.1c-2.9,2.9-4.7,6.8-5.6,11c-0.8,4-0.8,8.3,0.3,12.4
			c0.1,1.6,0.3,3.1,0.7,4.7c0,0.1,0,0.2,0.1,0.2c0,0.2,0,0.4,0.1,0.6c-0.2-0.3-0.5-0.7-0.7-1c-2.4-3.8-3.2-8.2-2.9-12.3
			c1.9-8,6-15.1,12-20.3c1-0.8,3.1-2.9,4.7-2.5C62.9,9.4,62.8,9.5,62.7,9.6z M50.5,41.4c0.1,0.3,0.1,0.6,0.2,0.9
			c-0.1,0-0.1,0.1-0.2,0.1c0,0,0,0,0,0c-0.1-0.7-0.2-1.3-0.3-2C50.2,40.7,50.3,41,50.5,41.4z M50.3,35.5c0.1,1.1,0.2,2.1,0.5,3.2
			c0,0.6,0,1.3,0,1.9c-0.1-0.3-0.2-0.7-0.3-1C50.3,38.2,50.3,36.8,50.3,35.5z M50.6,42.9c0.1-0.1,0.1-0.1,0.2-0.2
			c0.1,0.6,0.3,1.2,0.4,1.8c0,0.2,0.1,0.3,0.1,0.5C51,44.3,50.7,43.6,50.6,42.9C50.6,42.9,50.6,42.9,50.6,42.9z M50.9,35.7
			c0-0.4,0-0.8,0.1-1.2c0,0,0,0.1,0,0.1c0,0.2,0,0.4,0,0.5c0,0.3-0.1,0.6-0.1,0.9C50.9,35.9,50.9,35.8,50.9,35.7z M49.8,43.1
			c0-0.2-0.1-0.4-0.1-0.6c0.1,0.2,0.2,0.4,0.2,0.7c0,0.1-0.1,0.2-0.1,0.2C49.9,43.3,49.9,43.2,49.8,43.1z M49.6,41
			c0-0.1-0.1-0.3-0.1-0.4c-0.1-1.3-0.1-2.6-0.1-3.9c0.1,0.7,0.2,1.3,0.3,1.9c0,0.7,0.1,1.4,0.2,2.2c0.1,0.6,0.2,1.3,0.3,2
			c0,0,0,0,0,0C50,42.2,49.8,41.6,49.6,41z M50.2,43.7c0.3,0.7,0.6,1.3,1,1.9c0.1,0.1,0.2,0.3,0.2,0.4c0.1,0.6,0.3,1.3,0.5,1.9
			c-0.3-0.3-0.6-0.7-0.9-1c-0.4-0.8-0.6-1.7-0.9-2.6C50.1,44.1,50.2,43.9,50.2,43.7z M52.2,48.9c0.1,0.4,0.3,0.8,0.4,1.2
			c-0.4-0.6-0.7-1.2-1-1.8C51.8,48.5,52,48.7,52.2,48.9z M52.1,46.3c0-0.1-0.1-0.2-0.1-0.4c-0.1-0.7-0.3-1.4-0.4-2
			c0.3,0.5,0.4,1.6,0.8,2.1c0.2,0.7,0.6,0.9,0.9,1.5C52.8,47.1,52.4,46.7,52.1,46.3z M58.9,55.6c0.1,0.1,0.2,0.2,0.2,0.2
			c0.6,0.6,1.2,1.1,1.9,1.6c0.1,0.1,0.3,0.2,0.4,0.3c-0.7-0.3-1.4-0.6-2-1c0,0-0.1-0.1-0.1-0.1c-0.1-0.2-0.2-0.3-0.3-0.5
			c-0.2-0.3-0.4-0.6-0.5-0.9C58.5,55.3,58.7,55.4,58.9,55.6z M62.7,59.5c2.2,1,4.5,1.8,6.9,2.3c2.5,0.7,5.1,1.1,7.6,0.9
			c0.6,0.1,1.3,0.1,1.9,0.1c-1.5,0.2-2.9,0.4-4.4,0.4c-2.9,0.1-5.8-0.2-8.7-1c-1.8-1-3.6-2.1-5.2-3.5c-0.1-0.1-0.2-0.3-0.3-0.4
			C61.1,58.7,61.9,59.1,62.7,59.5z M72.8,63.6c3.1,0.1,6.1-0.3,9-0.9c-3.1,1.1-6.5,1.5-9.9,1.2c-1.6-0.2-3.1-0.5-4.7-0.9
			c0,0,0,0,0,0C69.1,63.4,71,63.6,72.8,63.6z M80.7,62.3c-0.2,0-0.5,0-0.7,0c0.2,0,0.4-0.1,0.6-0.1c1.7-0.2,3.3-0.5,4.8-1
			c-0.1,0-0.2,0.1-0.2,0.1C83.8,61.9,82.3,62.2,80.7,62.3z M83.2,60.5c0.3,0,0.6-0.1,0.8-0.1c-0.2,0.1-0.4,0.2-0.6,0.2
			C83.4,60.6,83.3,60.6,83.2,60.5z M84.6,60.9C84.6,60.9,84.6,60.9,84.6,60.9c0.7-0.3,1.3-0.6,2-1c0.9-0.2,1.7-0.6,2.6-0.9
			c-0.3,0.2-0.5,0.4-0.8,0.5C87.2,60.1,85.9,60.5,84.6,60.9z M89.1,59.8c0.5-0.2,0.9-0.5,1.4-0.7c-0.2,0.2-0.4,0.4-0.6,0.6
			c-0.6,0.2-1.2,0.5-1.8,0.7C88.5,60.2,88.8,60,89.1,59.8z M85.8,6.2c0.3,0.1,0.6,0.2,1,0.4c0.1,0,0.2,0.1,0.3,0.1
			c-0.9-0.3-1.7-0.5-2.6-0.7C84.9,6,85.4,6.1,85.8,6.2z M89.3,57.5c-0.8,0.5-1.6,1-2.4,1.5c-0.2,0.1-0.4,0.2-0.6,0.3
			c-1.9,0.5-3.9,0.8-6,0.7c0.9-0.2,1.8-0.5,2.7-1C85.2,58.7,87.3,58.2,89.3,57.5z M82.5,5.3c-0.1,0-0.2,0-0.4,0c-0.1,0-0.3,0-0.4,0
			c0,0,0,0,0,0c-0.9-0.2-1.9-0.3-2.8-0.4C80.1,5,81.3,5.1,82.5,5.3z M75,5.4c1.2,0,2.4,0,3.6,0.1c0.5,0,1,0.1,1.5,0.2
			c-0.6,0.1-1.3,0.3-1.9,0.6c-1.2-0.4-2.3-0.6-3.5-0.8C74.8,5.5,74.9,5.4,75,5.4z M74.7,8.8c0.1,0,0.2,0,0.4,0
			c0.2,0.1,0.4,0.1,0.6,0.2c-0.2,0.2-0.3,0.4-0.5,0.6c-0.4-0.1-0.8-0.2-1.1-0.3C74.3,9.2,74.5,9,74.7,8.8z M73.5,8.8
			c0.1,0,0.2,0,0.4,0c-0.1,0.1-0.2,0.2-0.3,0.3c-0.1,0.1-0.1,0.1-0.2,0.2c-0.6-0.1-1.1-0.2-1.7-0.2C72.2,8.9,72.9,8.8,73.5,8.8z
			 M73.2,8.2c-0.1,0-0.1,0-0.2,0c-0.4,0-0.8,0-1.1,0c-0.6,0-1.3,0.1-1.9,0.2c-0.7-0.3-1.5-0.4-2.3-0.4C67.8,8,68,8,68.2,8
			c1.3-0.2,2.6-0.2,3.9,0C72.4,8,72.8,8.1,73.2,8.2z M70.3,5.8C70,5.9,69.8,6,69.5,6.1c-0.5,0.2-1,0.5-1.5,0.8c0,0-0.1,0-0.1,0
			c-1,0-1.9,0.1-2.8,0.3C66.8,6.6,68.5,6.1,70.3,5.8z M59.7,9.9c2.1-1.2,4.5-2.1,7-2.4c-0.2,0.1-0.5,0.3-0.7,0.4
			c-0.9,0.3-1.8,0.8-2.6,1.3c-1.1-0.4-2.4,0.2-3.2,0.8c-1.9,1.3-3.7,3-5.2,4.7c-3.1,3.5-5.7,7.6-7.3,12.1c-0.4,1-0.7,2.1-1,3.1
			c0.3-1.7,0.7-3.4,1.2-4.9C49.8,18.7,54.1,13.1,59.7,9.9z M46.9,42.1c-1.7-4.5-2.3-9.4-1.5-13.9c0.9-5.2,3.7-9.6,7.1-13.1
			c0.4-0.4,0.7-0.7,1.1-1.1c-3.2,3.4-5.6,7.6-6.9,12.3c-0.7,2.3-1.1,4.8-1.1,7.3c-0.1,0.4-0.1,0.8-0.2,1.2c0,0.1,0.2,0.2,0.2,0
			c0,0,0-0.1,0-0.1c0,0.6,0.1,1.1,0.1,1.7c0.4,3.4,1.7,6.6,3.8,9.5c0.1,0.2,0.3,0.4,0.5,0.6c0.3,1.3,0.8,2.5,1.5,3.7
			C49.6,47.8,48,45,46.9,42.1z M50.6,47.4c0-0.1-0.1-0.2-0.1-0.2c0,0,0,0,0.1,0.1c0.7,1.7,1.7,3.4,2.9,4.9c0.1,0.2,0.2,0.3,0.2,0.5
			C52.4,51.1,51.3,49.3,50.6,47.4z M54.1,52.1c-0.4-0.8-0.8-1.6-1.1-2.5c0.1,0.1,0.1,0.1,0.2,0.2c0.7,1.4,1.5,2.8,2.4,4
			C55.1,53.3,54.6,52.7,54.1,52.1z M53.8,50.3c0.5,0.4,0.9,0.7,1.4,1c0.7,1,1.4,2,2.2,2.9c0.3,0.7,0.7,1.3,1.1,2
			c-0.6-0.4-1.1-0.8-1.6-1.2C55.7,53.5,54.7,51.9,53.8,50.3z M59.4,58.8c-1.2-1-2.3-2.1-3.2-3.3c0.7,0.6,1.4,1.1,2.2,1.6
			c0.6,0.6,1.1,1.1,1.7,1.7c0.1,0.1,0.2,0.1,0.2,0.2c0.3,0.4,0.6,0.8,0.9,1.1c0,0,0,0,0,0C60.6,59.7,60,59.3,59.4,58.8z M62.2,60.7
			c-0.2-0.3-0.5-0.5-0.7-0.8c0.9,0.7,1.8,1.3,2.7,1.9c-0.1,0-0.2-0.1-0.3-0.1C63.3,61.4,62.8,61.1,62.2,60.7z M79.3,66.3
			c-2.4,0.6-5,0.7-7.5,0.3c-1.3-0.2-2.7-0.6-3.9-1.2c-1.4-0.6-2.6-1.6-3.8-2.6c-0.3-0.3-0.5-0.5-0.8-0.8c1.4,0.7,2.9,1.3,4.4,1.7
			c0.2,0,0.3,0.1,0.5,0.1c1.4,0.6,2.7,1.1,4.1,1.4c2.6,0.7,5.3,1,7.9,0.8C79.9,66.1,79.6,66.2,79.3,66.3z M82,65.4
			C82,65.4,82,65.4,82,65.4c-3.7,0.5-7.6,0.1-11.3-1.1c3.8,0.6,7.5,0.2,11-0.9c1.5-0.5,2.9-1.1,4.2-1.8c0.1,0,0.2-0.1,0.3-0.1
			c1-0.3,2.1-0.7,3.1-1.1C87.2,62.6,84.7,64.3,82,65.4z M95.1,59c-3.2,2.8-7,5-11.2,6c0,0,0.1,0,0.1-0.1c2.4-1.2,4.5-2.9,6.2-4.9
			c3-1.3,5.9-2.8,8.5-4.8C97.6,56.6,96.4,57.9,95.1,59z M100.1,53.7c-2.8,2.3-5.9,4.2-9.2,5.6c0.2-0.3,0.5-0.6,0.7-0.9
			c0.1,0,0.1-0.1,0.2-0.1c1.4-0.9,2.6-2,3.7-3.2c0.6-0.5,1.2-1,1.7-1.5c1.7-1.2,3.3-2.7,4.6-4.4c1.2-1.6,2.1-3.4,2.7-5.4
			c1-2.5,1.5-5.3,1.6-8c0.2-5.1-0.6-10.8-3.6-15.4c-0.8-1.2-1.7-2.3-2.7-3.2c-0.3-0.5-0.7-1.1-1-1.6c-0.2-0.3-0.4-0.6-0.6-0.9
			c3.3,3.2,5.8,7.2,7.2,11.6c0.6,2,1,4,1.3,6.1c0,0.1,0.2,0.2,0.2,0c-0.1-1.6-0.3-3.1-0.7-4.6c0,0.1,0,0.1,0,0.2
			c0,0.1,0.2,0.1,0.2,0c-1.5-6.4-5.3-12.3-10.2-16.7c3.3,2.1,6.4,4.7,8.4,8.2c2.4,4.2,3.3,9.1,3.1,13.6c-0.2,5-1.5,9.8-3.6,14.1
			C102.9,49.6,101.6,51.7,100.1,53.7z"/>
		<path class="st0" d="M63.1,67.6c0,0,0.1-0.4-0.2-0.1c0,0-0.4-0.2-0.3,0c0.1,0.2,0.1,0.2,0.1,0.3c-0.1,0.1-0.2,0.2,0,0.2
			c0.2,0,0.1,0,0.2,0.1c0.2,0.3,0.1-0.2,0.2-0.2c0.1-0.1,0.2,0,0.3,0C63.3,67.8,63.1,67.6,63.1,67.6z"/>
	</g>
	<g>
		<path class="st0" d="M50.6,9.7c0.1-0.4,0.2-0.8,0.4-0.8c0.2-0.1,0.3,0,0.5,0c0.2-0.2,0.4-0.3,0.6-0.5c0.2-0.2,0.4-0.4,0.5-0.6
			c-0.1-0.1-0.2-0.3-0.3-0.4c-0.8,0.7-1.5,1.5-2.3,2.2c-0.2,0.2-0.4,0.4-0.7,0.6c0.1,0.1,0.1,0.2,0.2,0.3c0,0,0,0,0,0
			C49.9,10.2,50.3,9.9,50.6,9.7z"/>
		<path class="st0" d="M49.8,10.8c0.2-0.2,0.4-0.3,0.6-0.5c0-0.1,0.1-0.2,0.1-0.3c-0.3,0.2-0.5,0.5-0.8,0.7
			C49.8,10.8,49.8,10.8,49.8,10.8z"/>
		<path class="st0" d="M49.7,10.7C49.7,10.6,49.7,10.6,49.7,10.7c0.3-0.3,0.6-0.5,0.9-0.8c0-0.1,0-0.1,0-0.2c-0.3,0.3-0.6,0.5-1,0.8
			C49.6,10.6,49.7,10.6,49.7,10.7z"/>
		<path class="st0" d="M52.9,8.1c-0.1-0.1-0.1-0.2-0.2-0.2c-0.2,0.2-0.4,0.4-0.6,0.6c-0.2,0.2-0.3,0.3-0.5,0.5
			c0.1,0,0.2,0.1,0.2,0.1c0,0,0.1-0.1,0.1-0.1C52.3,8.6,52.6,8.4,52.9,8.1z"/>
		<path class="st0" d="M51.8,6.3c0.3-0.3,0.6-0.5,0.9-0.8c-0.1,0-0.2,0-0.4,0c-0.7,0.7-1.4,1.4-2.1,2c-0.5,0.4-1,0.8-1.5,1.2
			c0.2,0,0.3,0,0.4,0.1c0.4-0.4,0.9-0.7,1.3-1.1C50.7,7.2,51.3,6.7,51.8,6.3z"/>
		<path class="st0" d="M51.9,5.8c0.1-0.1,0.2-0.2,0.3-0.3c-0.2,0-0.5,0.1-0.8,0.3c-1,1-2,2.1-3.2,2.9c0.1,0,0.2,0,0.3,0
			c0,0,0,0,0.1,0C49.7,7.7,50.8,6.8,51.9,5.8z"/>
		<path class="st0" d="M49.4,6.9c-0.5,0.4-1.1,0.8-1.6,1.3c0,0,0,0,0,0c0,0,0,0,0,0c-0.1,0.1-0.3,0.2-0.4,0.3c0.1,0,0.3,0.1,0.5,0.1
			c0.3-0.2,0.5-0.5,0.8-0.7c0.5-0.4,1-0.8,1.4-1.2c0.3-0.3,0.6-0.5,0.8-0.8c0,0-0.1-0.1-0.2-0.2C50.3,6.1,49.8,6.5,49.4,6.9z"/>
		<path class="st0" d="M47.9,8.6C47.9,8.6,47.9,8.6,47.9,8.6c0.1,0,0.2,0,0.3,0C48.4,8.4,48.7,8.2,49,8c0.8-0.7,1.6-1.4,2.3-2.2
			c-0.1,0-0.2,0.1-0.3,0.1c0,0,0,0,0,0c-0.3,0.3-0.7,0.7-1,1C49.3,7.5,48.5,8,47.9,8.6z"/>
		<path class="st0" d="M48.9,4.4c-0.2-0.1-0.4,0-0.4,0.3C48.6,4.6,48.7,4.5,48.9,4.4z"/>
		<path class="st0" d="M48.6,5.4c0.2-0.3,0.5-0.5,0.8-0.7c-0.2-0.1-0.3-0.2-0.5-0.2c-0.1,0.1-0.3,0.2-0.4,0.3c0,0.1,0,0.1,0,0.2
			C48.6,5.1,48.6,5.3,48.6,5.4z"/>
		<path class="st0" d="M48.6,5.5c0,0.1,0,0.2,0.1,0.3c0.3-0.3,0.6-0.6,1-0.9c-0.1-0.1-0.2-0.1-0.3-0.2C49.2,5,48.9,5.2,48.6,5.5z"/>
		<path class="st0" d="M48.8,6.2c0,0.1,0,0.2,0,0.2c0.4-0.4,0.9-0.8,1.4-1.1c-0.1-0.1-0.1-0.1-0.2-0.2C49.6,5.5,49.2,5.8,48.8,6.2z"
			/>
		<path class="st0" d="M50,5.1C49.9,5,49.8,5,49.8,4.9c-0.4,0.3-0.7,0.6-1,0.9c0,0.1,0,0.2,0,0.2C49.2,5.8,49.6,5.4,50,5.1z"/>
		<path class="st0" d="M48.8,6.7c0.2-0.2,0.5-0.4,0.7-0.6c0.3-0.2,0.6-0.5,0.9-0.7c0,0-0.1-0.1-0.1-0.1c-0.2,0.1-0.4,0.2-0.5,0.4
			c-0.3,0.2-0.6,0.5-0.9,0.8C48.8,6.6,48.8,6.6,48.8,6.7z"/>
		<path class="st0" d="M48.8,6.8c0,0.1,0,0.2-0.1,0.3c0.6-0.5,1.3-1,1.8-1.5c0,0-0.1-0.1-0.1-0.1C49.9,5.9,49.4,6.4,48.8,6.8z"/>
		<path class="st0" d="M47.9,7.6C47.8,7.6,47.8,7.7,47.9,7.6c-0.3,0.3-0.6,0.5-0.9,0.8c0.1,0,0.2,0.1,0.3,0.1
			c0.1-0.1,0.3-0.2,0.4-0.4c0.2-0.3,0.4-0.5,0.7-0.8c0,0-0.1,0-0.1,0C48.1,7.5,48,7.6,47.9,7.6z"/>
		<path class="st0" d="M47.7,7.7c-0.2,0.1-0.3,0.2-0.5,0.2C47.1,8,47,8.1,46.9,8.2c0,0,0,0.1,0,0.1C47.2,8.1,47.4,7.9,47.7,7.7z"/>
		<path class="st0" d="M49.7,6.4c-0.6,0.5-1.4,1-1.8,1.6c0,0,0,0,0.1,0c0.5-0.4,1.1-0.8,1.6-1.2c0.4-0.3,0.8-0.7,1.2-1
			c0,0,0,0-0.1-0.1C50.3,5.9,50,6.1,49.7,6.4z"/>
		<path class="st0" d="M50.5,8.6c0.5-0.4,0.9-0.8,1.3-1.2c0.2-0.2,0.5-0.4,0.7-0.7c0.1-0.2,0.2-0.4,0.3-0.6
			c-0.1,0.1-0.2,0.2-0.4,0.3c-0.4,0.3-0.8,0.7-1.2,1.1c-0.2,0.2-0.4,0.4-0.6,0.5c-0.3,0.3-0.7,0.6-1,0.8c-0.1,0-0.1,0.1-0.2,0.1
			c-0.1,0.1-0.3,0.2-0.4,0.3c0,0.1,0,0.3,0.1,0.4C49.6,9.3,50,8.9,50.5,8.6z"/>
		<path class="st0" d="M52.5,6.9c-0.3,0.3-0.6,0.5-0.9,0.8c-0.4,0.4-0.9,0.8-1.3,1.2c-0.4,0.3-0.7,0.6-1.1,0.9
			c0,0.1,0.1,0.2,0.1,0.3c0,0,0,0.1,0.1,0.1c0.8-0.7,1.5-1.4,2.3-2.1c0.2-0.2,0.4-0.4,0.7-0.6c-0.1-0.1-0.1-0.1-0.1-0.1
			S52.3,7.1,52.5,6.9z"/>
		<path class="st0" d="M49.4,8.9c0.2-0.2,0.5-0.4,0.7-0.6c0.2-0.1,0.4-0.3,0.5-0.4c0.3-0.3,0.6-0.6,0.9-0.9c0.4-0.4,0.8-0.8,1.2-1.3
			c0-0.1-0.1-0.1-0.1-0.2c-0.9,0.8-1.8,1.6-2.7,2.4c-0.3,0.3-0.7,0.6-1,0.9c0.1,0.1,0.1,0.1,0.1,0.4C49.2,9.1,49.3,9,49.4,8.9z"/>
		<path class="st0" d="M52.8,6c0-0.1,0-0.2,0-0.3c-0.4,0.4-0.8,0.8-1.1,1.2C52,6.6,52.4,6.3,52.8,6C52.8,6,52.8,6,52.8,6z"/>
		<path class="st0" d="M52.6,9.1c-0.1,0-0.1,0.1-0.2,0.1c0.3,0.1,0.5,0.2,0.8,0.2c0.3,0,0.2-0.4,0-0.8C53,8.8,52.8,9,52.6,9.1z"/>
		<path class="st0" d="M50.4,10.4c-0.2,0.1-0.3,0.3-0.5,0.4C50.1,11,50.2,10.8,50.4,10.4z"/>
		<path class="st0" d="M52.9,8.1C52.6,8.4,52.3,8.7,52,9c0,0,0,0,0,0c0.1,0.1,0.3,0.1,0.4,0.2c0.3-0.2,0.5-0.4,0.8-0.6
			C53.1,8.5,53,8.3,52.9,8.1z"/>
	</g>
	<g>
		<path class="st0" d="M48.2,55.3c0-0.1,0.1-0.3,0.1-0.3c0.1,0,0.1,0,0.2,0c0.1-0.1,0.1-0.1,0.2-0.2c0.1-0.1,0.1-0.1,0.2-0.2
			c0-0.1-0.1-0.1-0.1-0.1c-0.3,0.3-0.5,0.5-0.8,0.8c-0.1,0.1-0.2,0.1-0.2,0.2c0,0,0,0.1,0.1,0.1c0,0,0,0,0,0
			C48,55.5,48.1,55.4,48.2,55.3z"/>
		<path class="st0" d="M47.9,55.7c0.1-0.1,0.1-0.1,0.2-0.2c0,0,0-0.1,0-0.1C48.1,55.5,48,55.6,47.9,55.7
			C47.9,55.7,47.9,55.7,47.9,55.7z"/>
		<path class="st0" d="M47.9,55.7C47.9,55.7,47.9,55.6,47.9,55.7c0.1-0.1,0.2-0.2,0.3-0.3c0,0,0,0,0-0.1
			C48.1,55.4,48,55.5,47.9,55.7C47.9,55.6,47.9,55.7,47.9,55.7z"/>
		<path class="st0" d="M49,54.8C49,54.7,48.9,54.7,49,54.8c-0.1,0-0.2,0-0.3,0.1c-0.1,0.1-0.1,0.1-0.2,0.2c0,0,0.1,0,0.1,0
			c0,0,0,0,0,0C48.8,55,48.9,54.9,49,54.8z"/>
		<path class="st0" d="M48.6,54.1c0.1-0.1,0.2-0.2,0.3-0.3c0,0-0.1,0-0.1,0c-0.2,0.2-0.5,0.5-0.7,0.7c-0.2,0.1-0.4,0.3-0.5,0.4
			c0.1,0,0.1,0,0.1,0c0.1-0.1,0.3-0.3,0.4-0.4C48.2,54.5,48.4,54.3,48.6,54.1z"/>
		<path class="st0" d="M48.6,54c0,0,0.1-0.1,0.1-0.1c-0.1,0-0.2,0-0.3,0.1c-0.3,0.4-0.7,0.7-1.1,1c0,0,0.1,0,0.1,0c0,0,0,0,0,0
			C47.9,54.7,48.3,54.3,48.6,54z"/>
		<path class="st0" d="M47.8,54.4c-0.2,0.2-0.4,0.3-0.6,0.4c0,0,0,0,0,0c0,0,0,0,0,0c0,0-0.1,0.1-0.1,0.1c0,0,0.1,0,0.2,0
			c0.1-0.1,0.2-0.2,0.3-0.2c0.2-0.1,0.3-0.3,0.5-0.4c0.1-0.1,0.2-0.2,0.3-0.3c0,0,0,0-0.1-0.1C48.1,54.1,47.9,54.2,47.8,54.4z"/>
		<path class="st0" d="M47.3,55C47.3,55,47.3,55,47.3,55C47.3,55,47.3,55,47.3,55c0.2-0.1,0.3-0.1,0.4-0.2c0.3-0.2,0.5-0.5,0.8-0.8
			c0,0-0.1,0-0.1,0.1c0,0,0,0,0,0c-0.1,0.1-0.2,0.2-0.4,0.3C47.7,54.6,47.5,54.8,47.3,55z"/>
		<path class="st0" d="M47.6,53.5c-0.1,0-0.1,0-0.1,0.1C47.5,53.6,47.6,53.5,47.6,53.5z"/>
		<path class="st0" d="M47.5,53.9c0.1-0.1,0.2-0.2,0.3-0.3c-0.1,0-0.1-0.1-0.2-0.1c-0.1,0-0.1,0.1-0.2,0.1c0,0,0,0,0,0.1
			C47.5,53.7,47.5,53.8,47.5,53.9z"/>
		<path class="st0" d="M47.5,53.9c0,0,0,0.1,0,0.1c0.1-0.1,0.2-0.2,0.3-0.3c0,0-0.1,0-0.1-0.1C47.7,53.7,47.6,53.8,47.5,53.9z"/>
		<path class="st0" d="M47.6,54.1C47.6,54.1,47.6,54.2,47.6,54.1c0.2-0.1,0.3-0.2,0.5-0.3c0,0,0,0-0.1-0.1
			C47.9,53.9,47.7,54,47.6,54.1z"/>
		<path class="st0" d="M48,53.7C48,53.7,47.9,53.7,48,53.7c-0.2,0-0.3,0.1-0.4,0.3c0,0,0,0.1,0,0.1C47.7,54,47.8,53.9,48,53.7z"/>
		<path class="st0" d="M47.6,54.3c0.1-0.1,0.2-0.1,0.2-0.2c0.1-0.1,0.2-0.2,0.3-0.2c0,0,0,0,0,0c-0.1,0-0.1,0.1-0.2,0.1
			C47.8,54,47.7,54.1,47.6,54.3C47.6,54.3,47.6,54.3,47.6,54.3z"/>
		<path class="st0" d="M47.6,54.3C47.6,54.4,47.6,54.4,47.6,54.3c0.2-0.1,0.4-0.2,0.6-0.4c0,0,0,0,0,0C48,54,47.8,54.2,47.6,54.3z"
			/>
		<path class="st0" d="M47.3,54.6C47.2,54.6,47.2,54.6,47.3,54.6c-0.1,0.1-0.2,0.2-0.3,0.3c0,0,0.1,0,0.1,0c0.1,0,0.1-0.1,0.2-0.1
			c0.1-0.1,0.1-0.2,0.2-0.3c0,0,0,0,0,0C47.4,54.6,47.3,54.6,47.3,54.6z"/>
		<path class="st0" d="M47.2,54.6c-0.1,0-0.1,0.1-0.2,0.1c0,0-0.1,0.1-0.1,0.1c0,0,0,0,0,0C47,54.8,47.1,54.7,47.2,54.6z"/>
		<path class="st0" d="M47.9,54.2c-0.2,0.2-0.5,0.3-0.6,0.6c0,0,0,0,0,0c0.2-0.1,0.4-0.3,0.5-0.4c0.1-0.1,0.3-0.2,0.4-0.4
			c0,0,0,0,0,0C48.1,54,48,54.1,47.9,54.2z"/>
		<path class="st0" d="M48.2,54.9c0.2-0.1,0.3-0.3,0.5-0.4c0.1-0.1,0.2-0.2,0.3-0.2c0-0.1,0.1-0.1,0.1-0.2c0,0-0.1,0.1-0.1,0.1
			c-0.1,0.1-0.3,0.2-0.4,0.4c-0.1,0.1-0.1,0.1-0.2,0.2c-0.1,0.1-0.2,0.2-0.3,0.3c0,0,0,0-0.1,0c0,0-0.1,0.1-0.1,0.1c0,0,0,0.1,0,0.1
			C47.9,55.2,48,55.1,48.2,54.9z"/>
		<path class="st0" d="M48.8,54.3c-0.1,0.1-0.2,0.2-0.3,0.3c-0.1,0.1-0.3,0.3-0.5,0.4c-0.1,0.1-0.2,0.2-0.4,0.3c0,0,0,0.1,0,0.1
			c0,0,0,0,0,0c0.3-0.2,0.5-0.5,0.8-0.7c0.1-0.1,0.2-0.1,0.2-0.2c0,0,0-0.1,0-0.1S48.8,54.4,48.8,54.3z"/>
		<path class="st0" d="M47.8,55c0.1-0.1,0.2-0.1,0.3-0.2c0.1-0.1,0.1-0.1,0.2-0.2c0.1-0.1,0.2-0.2,0.3-0.3c0.1-0.1,0.3-0.3,0.4-0.4
			c0,0,0,0,0-0.1c-0.3,0.3-0.6,0.6-0.9,0.8c-0.1,0.1-0.2,0.2-0.3,0.3c0,0,0,0,0,0.1C47.7,55.1,47.8,55.1,47.8,55z"/>
		<path class="st0" d="M49,54C49,54,49,54,49,54c-0.1,0-0.3,0.2-0.4,0.3C48.7,54.3,48.8,54.2,49,54C48.9,54.1,49,54.1,49,54z"/>
		<path class="st0" d="M48.9,55.1C48.9,55.1,48.8,55.2,48.9,55.1c0,0.1,0.1,0.1,0.2,0.1c0.1,0,0.1-0.1,0-0.3
			C49,55,49,55.1,48.9,55.1z"/>
		<path class="st0" d="M48.1,55.6c-0.1,0-0.1,0.1-0.2,0.1C48,55.8,48.1,55.7,48.1,55.6z"/>
		<path class="st0" d="M49,54.8c-0.1,0.1-0.2,0.2-0.3,0.3c0,0,0,0,0,0c0,0,0.1,0,0.1,0.1c0.1-0.1,0.2-0.1,0.3-0.2
			C49.1,54.9,49,54.8,49,54.8z"/>
	</g>
	<g>
		<path class="st0" d="M97.7,3.6c0.1-0.1,0.2-0.1,0.2-0.1c0,0,0.1,0,0.1,0.1c0.1,0,0.1,0,0.2,0c0.1,0,0.1,0,0.2,0c0,0,0-0.1,0-0.1
			c-0.3,0.1-0.6,0.1-0.9,0.2c-0.1,0-0.2,0-0.2,0c0,0,0,0.1,0,0.1c0,0,0,0,0,0C97.5,3.6,97.6,3.6,97.7,3.6z"/>
		<path class="st0" d="M97.4,3.7c0.1,0,0.1,0,0.2,0c0,0,0,0,0.1-0.1C97.6,3.7,97.5,3.7,97.4,3.7C97.4,3.7,97.4,3.7,97.4,3.7z"/>
		<path class="st0" d="M97.4,3.7C97.4,3.7,97.4,3.7,97.4,3.7c0.1,0,0.2,0,0.3,0c0,0,0,0,0,0C97.6,3.6,97.5,3.6,97.4,3.7
			C97.4,3.7,97.4,3.7,97.4,3.7z"/>
		<path class="st0" d="M98.5,3.6C98.5,3.5,98.5,3.5,98.5,3.6c-0.1-0.1-0.1,0-0.2,0c-0.1,0-0.1,0-0.2,0c0,0,0,0,0,0.1c0,0,0,0,0.1,0
			C98.3,3.6,98.4,3.6,98.5,3.6z"/>
		<path class="st0" d="M98.5,3c0.1,0,0.2,0,0.3-0.1c0,0,0,0-0.1-0.1C98.5,2.9,98.2,3,98,3c-0.2,0-0.4,0-0.5,0.1c0,0,0.1,0,0.1,0.1
			c0.2,0,0.3,0,0.5-0.1C98.1,3,98.3,3,98.5,3z"/>
		<path class="st0" d="M98.6,2.9c0,0,0.1,0,0.1,0C98.7,2.8,98.6,2.8,98.6,2.9c-0.5,0-0.9,0.1-1.3,0.1c0,0,0,0,0.1,0c0,0,0,0,0,0
			C97.8,3,98.2,3,98.6,2.9z"/>
		<path class="st0" d="M97.9,2.8c-0.2,0-0.4,0-0.6,0c0,0,0,0,0,0c0,0,0,0,0,0c0,0-0.1,0-0.1,0c0,0,0.1,0.1,0.1,0.1
			c0.1,0,0.2,0,0.3,0c0.2,0,0.3,0,0.5-0.1c0.1,0,0.2,0,0.3-0.1c0,0,0,0,0-0.1C98.2,2.7,98,2.8,97.9,2.8z"/>
		<path class="st0" d="M97.3,2.9C97.3,2.9,97.3,2.9,97.3,2.9C97.3,3,97.3,3,97.3,2.9c0.2,0,0.2,0,0.3,0c0.3,0,0.6-0.1,0.9-0.2
			c0,0-0.1,0-0.1,0c0,0,0,0,0,0c-0.1,0-0.3,0-0.4,0.1C97.8,2.9,97.5,2.9,97.3,2.9z"/>
		<path class="st0" d="M98.1,2.1c0-0.1-0.1-0.1-0.1,0C98,2.1,98.1,2.1,98.1,2.1z"/>
		<path class="st0" d="M97.9,2.3c0.1,0,0.2,0,0.3-0.1c0,0,0-0.1-0.1-0.1c0,0-0.1,0-0.2,0c0,0,0,0,0,0C98,2.2,97.9,2.3,97.9,2.3z"/>
		<path class="st0" d="M97.9,2.3C97.9,2.4,97.9,2.4,97.9,2.3c0.1,0,0.2,0,0.3,0c0,0,0-0.1,0-0.1C98.1,2.3,98,2.3,97.9,2.3z"/>
		<path class="st0" d="M97.9,2.5C97.8,2.5,97.8,2.6,97.9,2.5c0.1,0,0.3,0,0.5,0c0,0,0,0,0-0.1C98.1,2.5,98,2.5,97.9,2.5z"/>
		<path class="st0" d="M98.3,2.4C98.3,2.4,98.3,2.4,98.3,2.4c-0.2-0.1-0.3,0-0.4,0c0,0,0,0,0,0.1C98,2.5,98.1,2.5,98.3,2.4z"/>
		<path class="st0" d="M97.8,2.6c0.1,0,0.2,0,0.2,0c0.1,0,0.2,0,0.3,0c0,0,0,0,0,0c-0.1,0-0.1,0-0.2,0C98,2.6,97.9,2.6,97.8,2.6
			C97.8,2.6,97.8,2.6,97.8,2.6z"/>
		<path class="st0" d="M97.8,2.7C97.7,2.7,97.7,2.7,97.8,2.7c0.2,0,0.4,0,0.6,0c0,0,0,0,0,0C98.1,2.6,98,2.6,97.8,2.7z"/>
		<path class="st0" d="M97.4,2.7C97.4,2.7,97.4,2.7,97.4,2.7c-0.1,0-0.2,0-0.3,0c0,0,0,0,0,0.1c0.1,0,0.1,0,0.2,0
			c0.1,0,0.2-0.1,0.3-0.1c0,0,0,0,0,0C97.5,2.7,97.5,2.7,97.4,2.7z"/>
		<path class="st0" d="M97.4,2.7c-0.1,0-0.1,0-0.1,0c0,0-0.1,0-0.1,0c0,0,0,0,0,0C97.2,2.7,97.3,2.7,97.4,2.7z"/>
		<path class="st0" d="M98,2.7c-0.2,0-0.5,0-0.7,0.1c0,0,0,0,0,0c0.2,0,0.4,0,0.5-0.1c0.1,0,0.3,0,0.4-0.1c0,0,0,0,0,0
			C98.2,2.7,98.1,2.7,98,2.7z"/>
		<path class="st0" d="M97.9,3.3c0.2,0,0.3,0,0.5-0.1c0.1,0,0.2,0,0.3,0c0.1,0,0.1-0.1,0.2-0.1c0,0-0.1,0-0.1,0
			c-0.1,0-0.3,0-0.4,0.1c-0.1,0-0.2,0-0.2,0c-0.1,0-0.2,0-0.4,0c0,0,0,0-0.1,0c0,0-0.1,0-0.1,0c0,0,0,0.1,0,0.1
			C97.6,3.4,97.7,3.3,97.9,3.3z"/>
		<path class="st0" d="M98.6,3.2c-0.1,0-0.2,0-0.3,0.1c-0.2,0-0.3,0.1-0.5,0.1c-0.1,0-0.3,0-0.4,0c0,0,0,0.1,0,0.1c0,0,0,0,0,0
			c0.3,0,0.6-0.1,0.8-0.1c0.1,0,0.2,0,0.2,0c0,0,0-0.1,0-0.1S98.5,3.2,98.6,3.2z"/>
		<path class="st0" d="M97.6,3.2c0.1,0,0.2,0,0.3,0c0.1,0,0.1,0,0.2,0c0.1,0,0.2,0,0.3-0.1c0.2,0,0.3-0.1,0.5-0.1c0,0,0,0,0-0.1
			c-0.3,0.1-0.6,0.1-1,0.1C97.8,3.1,97.6,3.1,97.6,3.2c-0.1-0.1-0.1,0-0.1,0C97.5,3.2,97.6,3.2,97.6,3.2z"/>
		<path class="st0" d="M98.8,3.1C98.8,3.1,98.8,3,98.8,3.1c-0.1,0-0.3,0-0.4,0C98.5,3.1,98.7,3.1,98.8,3.1
			C98.8,3.1,98.8,3.1,98.8,3.1z"/>
		<path class="st0" d="M98.3,3.8C98.3,3.8,98.2,3.8,98.3,3.8c0,0.1,0,0.1,0.1,0.2c0.1,0,0.1-0.1,0.1-0.2C98.4,3.7,98.3,3.7,98.3,3.8
			z"/>
		<path class="st0" d="M97.6,3.7c-0.1,0-0.1,0-0.2,0C97.4,3.8,97.5,3.8,97.6,3.7z"/>
		<path class="st0" d="M98.5,3.6c-0.1,0-0.2,0-0.3,0.1c0,0,0,0,0,0c0,0,0,0.1,0.1,0.1c0.1,0,0.2,0,0.3,0C98.5,3.7,98.5,3.6,98.5,3.6
			z"/>
	</g>
	<g>
		<path class="st0" d="M88.9,66.7c0.1,0,0.3-0.1,0.3,0c0,0,0.1,0.1,0.1,0.2c0.1,0,0.2,0.1,0.3,0.1c0.1,0,0.2,0,0.3,0.1
			c0-0.1,0-0.1,0.1-0.1c-0.4-0.1-0.7-0.2-1.1-0.3c-0.1,0-0.2-0.1-0.3-0.1c0,0,0,0.1-0.1,0.1c0,0,0,0,0,0
			C88.6,66.6,88.7,66.7,88.9,66.7z"/>
		<path class="st0" d="M88.4,66.7c0.1,0,0.2,0.1,0.2,0.1c0,0,0.1,0,0.1,0C88.6,66.7,88.5,66.7,88.4,66.7
			C88.4,66.7,88.4,66.7,88.4,66.7z"/>
		<path class="st0" d="M88.4,66.6C88.4,66.6,88.4,66.6,88.4,66.6c0.1,0.1,0.3,0.1,0.4,0.1c0,0,0,0,0.1,0
			C88.7,66.7,88.6,66.6,88.4,66.6C88.4,66.6,88.4,66.6,88.4,66.6z"/>
		<path class="st0" d="M89.7,67.1C89.7,67.1,89.7,67.1,89.7,67.1c0-0.1-0.1-0.1-0.2-0.2c-0.1,0-0.1,0-0.2-0.1c0,0,0,0.1,0,0.1
			c0,0,0,0,0.1,0C89.5,67.1,89.6,67.1,89.7,67.1z"/>
		<path class="st0" d="M90.1,66.5c0.1,0,0.3,0.1,0.4,0.1c0,0,0-0.1-0.1-0.1c-0.3-0.1-0.6-0.2-1-0.3c-0.2-0.1-0.4-0.2-0.6-0.2
			c0,0.1,0,0.1,0,0.1c0.2,0.1,0.4,0.1,0.5,0.2C89.6,66.4,89.8,66.4,90.1,66.5z"/>
		<path class="st0" d="M90.2,66.5c0,0,0.1,0,0.1,0c0-0.1-0.1-0.1-0.2-0.2c-0.5-0.1-1-0.2-1.4-0.4c0,0,0,0.1,0,0.1c0,0,0,0,0,0
			C89.3,66.1,89.8,66.3,90.2,66.5z"/>
		<path class="st0" d="M89.5,65.9c-0.2-0.1-0.4-0.2-0.6-0.3c0,0,0,0,0,0c0,0,0,0,0,0c-0.1,0-0.1,0-0.2-0.1c0,0,0,0.1,0.1,0.2
			c0.1,0,0.2,0.1,0.4,0.1c0.2,0.1,0.4,0.2,0.6,0.2c0.1,0,0.3,0.1,0.4,0.1c0,0,0-0.1,0-0.1C89.9,66,89.7,66,89.5,65.9z"/>
		<path class="st0" d="M88.7,65.7C88.7,65.8,88.7,65.8,88.7,65.7C88.7,65.8,88.7,65.8,88.7,65.7c0.1,0.1,0.3,0.2,0.4,0.2
			c0.3,0.1,0.7,0.2,1,0.3c0,0-0.1,0-0.1-0.1c0,0,0,0,0,0c-0.2,0-0.3-0.1-0.5-0.1C89.3,66,89,65.8,88.7,65.7z"/>
		<path class="st0" d="M90.1,65.3c0-0.1-0.1-0.1-0.2-0.1C90,65.3,90.1,65.3,90.1,65.3z"/>
		<path class="st0" d="M89.8,65.4c0.1,0,0.2,0.1,0.4,0.1c0-0.1,0-0.1,0-0.2c-0.1,0-0.1-0.1-0.2-0.1c0,0,0,0,0,0
			C89.9,65.3,89.8,65.4,89.8,65.4z"/>
		<path class="st0" d="M89.8,65.4C89.7,65.5,89.7,65.5,89.8,65.4c0.1,0.1,0.2,0.2,0.4,0.2c0,0,0-0.1,0-0.1
			C90,65.5,89.9,65.5,89.8,65.4z"/>
		<path class="st0" d="M89.6,65.6C89.6,65.6,89.5,65.6,89.6,65.6c0.1,0.1,0.3,0.2,0.5,0.3c0,0,0-0.1,0-0.1
			C89.9,65.7,89.8,65.7,89.6,65.6z"/>
		<path class="st0" d="M90.1,65.8C90.1,65.7,90.1,65.7,90.1,65.8c-0.1-0.2-0.3-0.2-0.4-0.2c0,0,0,0-0.1,0.1
			C89.8,65.6,89.9,65.7,90.1,65.8z"/>
		<path class="st0" d="M89.4,65.7c0.1,0,0.2,0.1,0.3,0.1c0.1,0,0.2,0.1,0.4,0.1c0,0,0,0,0-0.1c-0.1,0-0.1-0.1-0.2-0.1
			C89.8,65.7,89.6,65.7,89.4,65.7C89.5,65.7,89.5,65.7,89.4,65.7z"/>
		<path class="st0" d="M89.4,65.7c0,0-0.1,0-0.1,0c0.3,0.1,0.5,0.2,0.8,0.3c0,0,0,0,0-0.1C89.9,65.9,89.6,65.8,89.4,65.7z"/>
		<path class="st0" d="M89,65.6C89,65.6,89,65.6,89,65.6c-0.1,0-0.3-0.1-0.4-0.1c0,0,0,0.1,0,0.1c0.1,0,0.1,0,0.2,0.1
			c0.1,0,0.2,0,0.3,0.1c0,0,0,0,0,0C89.1,65.6,89,65.6,89,65.6z"/>
		<path class="st0" d="M88.9,65.5c-0.1,0-0.1-0.1-0.1-0.1c0,0-0.1,0-0.1,0c0,0,0,0,0,0C88.7,65.5,88.8,65.5,88.9,65.5z"/>
		<path class="st0" d="M89.7,65.9c-0.3-0.1-0.5-0.2-0.8-0.3c0,0,0,0,0,0c0.2,0.1,0.4,0.2,0.6,0.3c0.2,0.1,0.3,0.1,0.5,0.2
			c0,0,0,0,0,0C89.9,66,89.8,66,89.7,65.9z"/>
		<path class="st0" d="M89.2,66.5c0.2,0.1,0.4,0.1,0.6,0.2c0.1,0,0.2,0.1,0.3,0.1c0.1,0,0.2,0,0.2,0c0,0-0.1,0-0.1-0.1
			c-0.2-0.1-0.3-0.1-0.5-0.2c-0.1,0-0.2-0.1-0.3-0.1c-0.1,0-0.3-0.1-0.4-0.2c0,0,0,0-0.1,0c-0.1,0-0.1,0-0.2-0.1
			c0,0-0.1,0.1-0.1,0.1C88.8,66.4,89,66.4,89.2,66.5z"/>
		<path class="st0" d="M90,66.8c-0.1,0-0.3-0.1-0.4-0.1c-0.2-0.1-0.4-0.1-0.6-0.2c-0.2-0.1-0.3-0.1-0.5-0.2c0,0,0,0.1-0.1,0.1
			c0,0,0,0,0,0c0.3,0.1,0.7,0.2,1,0.3c0.1,0,0.2,0.1,0.3,0.1c0,0,0-0.1,0-0.1S89.9,66.8,90,66.8z"/>
		<path class="st0" d="M88.9,66.3c0.1,0,0.2,0.1,0.3,0.1c0.1,0,0.2,0.1,0.2,0.1c0.1,0,0.3,0.1,0.4,0.1c0.2,0.1,0.4,0.1,0.6,0.1
			c0,0,0,0,0-0.1c-0.4-0.1-0.8-0.3-1.2-0.4c-0.1,0-0.3-0.1-0.4-0.2c0,0,0,0-0.1,0.1C88.8,66.2,88.8,66.2,88.9,66.3z"/>
		<path class="st0" d="M90.3,66.8C90.4,66.8,90.4,66.7,90.3,66.8c-0.1-0.1-0.3-0.1-0.5-0.2C90,66.6,90.2,66.7,90.3,66.8
			C90.3,66.8,90.3,66.8,90.3,66.8z"/>
		<path class="st0" d="M89.4,67.2C89.3,67.2,89.3,67.2,89.4,67.2c-0.1,0.1-0.1,0.2,0,0.2c0.1,0.1,0.1,0,0.2-0.1
			C89.5,67.3,89.4,67.3,89.4,67.2z"/>
		<path class="st0" d="M88.6,66.8c-0.1,0-0.1-0.1-0.2-0.1C88.4,66.8,88.5,66.8,88.6,66.8z"/>
		<path class="st0" d="M89.7,67.2c-0.1,0-0.3-0.1-0.4-0.1c0,0,0,0,0,0c0,0.1,0,0.1,0,0.2c0.1,0,0.2,0.1,0.3,0.1
			C89.6,67.3,89.7,67.2,89.7,67.2z"/>
	</g>
	<path class="st0" d="M46.2,15.2c0,0,0.1-1-0.2-0.7c-0.3,0.4-0.4,0.5-0.6,0.4c-0.3-0.2-0.6-0.3-0.3,0.1c0.3,0.4,0.1,0.1-0.1,0.5
		c-0.3,0.7,0.4,0.1,0.5,0.2c0.1,0.1,0.1,0.4,0.2,0.6c0.1,0.1,0.3-0.6,0.3-0.6S47.1,15.6,46.2,15.2z"/>
	<path class="st0" d="M48,64.9c0,0,0.1-0.7-0.1-0.4c-0.2,0.2-0.2,0.3-0.4,0.2c-0.2-0.1-0.4-0.2-0.2,0.1c0.2,0.3,0.1,0.1,0,0.3
		c-0.2,0.4,0.2,0,0.3,0.1c0.1,0.1,0.1,0.3,0.1,0.4c0.1,0.1,0.2-0.4,0.2-0.4S48.6,65.1,48,64.9z"/>
	<path class="st0" d="M105.2,57.1c0,0,0.1-0.7-0.1-0.4c-0.2,0.2-0.2,0.3-0.4,0.2c-0.2-0.1-0.4-0.2-0.2,0.1c0.2,0.3,0.1,0.1,0,0.3
		c-0.2,0.4,0.2,0,0.3,0.1s0.1,0.3,0.1,0.4c0.1,0.1,0.2-0.4,0.2-0.4S105.8,57.4,105.2,57.1z"/>
	<path class="st0" d="M54.8,62.7c0,0,0.2-2.1-0.4-1.4c-0.6,0.7-0.7,0.9-1.1,0.7c-0.6-0.3-1.1-0.6-0.6,0.3c0.5,0.9,0.2,0.3-0.1,1
		c-0.7,1.3,0.7,0.1,1,0.3c0.3,0.2,0.2,0.9,0.4,1.1c0.3,0.3,0.6-1.1,0.6-1.1S56.6,63.6,54.8,62.7z"/>
	<path class="st0" d="M57.4,5.5c0,0-0.6-1.6-0.7-0.9c-0.2,0.7-0.2,0.9-0.6,0.9c-0.6,0-1-0.1-0.4,0.4C56.4,6.4,56,6,56,6.7
		c0,1.2,0.6-0.2,0.9-0.1c0.3,0,0.4,0.6,0.7,0.6c0.3,0.1,0.1-1,0.1-1S58.9,5.5,57.4,5.5z"/>
	<path class="st0" d="M104.1,10.1c0,0,1.2-1.6,0.4-1.3c-0.9,0.3-1.1,0.4-1.3,0c-0.4-0.6-0.6-1.1-0.6-0.1c0,1,0.1,0.4-0.6,0.8
		c-1.2,0.8,0.6,0.5,0.7,0.8c0.2,0.3-0.3,0.8-0.2,1.2c0.1,0.4,1.1-0.6,1.1-0.6S105.2,11.7,104.1,10.1z"/>
	<path class="st0" d="M43.4,47.1c0,0-0.6-0.3-0.5,0c0.2,0.3,0.2,0.3,0.1,0.4c-0.2,0.2-0.3,0.3,0,0.2c0.3-0.1,0.1,0,0.3,0.2
		c0.3,0.4,0.1-0.2,0.2-0.3c0.1-0.1,0.3,0,0.4,0c0.1-0.1-0.3-0.3-0.3-0.3S43.9,46.6,43.4,47.1z"/>
	<path class="st0" d="M70.6,69c0,0-0.6-0.3-0.5,0c0.2,0.3,0.2,0.3,0.1,0.4c-0.2,0.2-0.3,0.3,0,0.2s0.1,0,0.3,0.2
		c0.3,0.4,0.1-0.2,0.2-0.3c0.1-0.1,0.3,0,0.4,0c0.1-0.1-0.3-0.3-0.3-0.3S71,68.5,70.6,69z"/>
	<path class="st0" d="M79,0.4c0,0-0.4-0.2-0.3,0c0.1,0.2,0.1,0.2,0.1,0.3c-0.1,0.1-0.2,0.2,0,0.1c0.2,0,0.1,0,0.2,0.1
		c0.2,0.2,0.1-0.1,0.1-0.2c0.1,0,0.2,0,0.3,0c0.1,0-0.2-0.2-0.2-0.2S79.3,0.1,79,0.4z"/>
	<path class="st0" d="M108.7,15.3c0,0-0.4-0.2-0.3,0c0.1,0.2,0.1,0.2,0.1,0.3c-0.1,0.1-0.2,0.2,0,0.1c0.2,0,0.1,0,0.2,0.1
		c0.2,0.2,0.1-0.1,0.1-0.2c0.1,0,0.2,0,0.3,0c0.1,0-0.2-0.2-0.2-0.2S109,15,108.7,15.3z"/>
	<path class="st0" d="M109.3,52.2c0,0-0.4-0.2-0.3,0c0.1,0.2,0.1,0.2,0.1,0.3c-0.1,0.1-0.2,0.2,0,0.1c0.2,0,0.1,0,0.2,0.1
		c0.2,0.2,0.1-0.1,0.1-0.2c0.1,0,0.2,0,0.3,0c0.1,0-0.2-0.2-0.2-0.2S109.6,51.9,109.3,52.2z"/>
	<path class="st0" d="M110.8,21.7c0,0-0.6-0.3-0.5,0c0.2,0.3,0.2,0.3,0.1,0.4c-0.2,0.2-0.3,0.3,0,0.2c0.3-0.1,0.1,0,0.3,0.2
		c0.3,0.4,0.1-0.2,0.2-0.3c0.1-0.1,0.3,0,0.4,0c0.1-0.1-0.3-0.3-0.3-0.3S111.3,21.3,110.8,21.7z"/>
	<path class="st0" d="M109.1,6.2c0,0-0.5-0.3-0.4,0c0.1,0.2,0.2,0.3,0.1,0.4c-0.2,0.1-0.3,0.2,0,0.2c0.3-0.1,0.1,0,0.3,0.1
		c0.3,0.3,0.1-0.2,0.2-0.2c0.1-0.1,0.2,0,0.3,0c0.1,0-0.2-0.3-0.2-0.3S109.5,5.8,109.1,6.2z"/>
	<path class="st0" d="M88.9,1.7c0,0-1.1-0.5-0.8-0.1c0.3,0.5,0.4,0.6,0.2,0.8c-0.3,0.3-0.6,0.5,0,0.4c0.6-0.1,0.2-0.1,0.5,0.3
		c0.6,0.6,0.2-0.4,0.4-0.5c0.2-0.1,0.5,0.1,0.7,0C90.1,2.5,89.4,2,89.4,2S89.7,0.9,88.9,1.7z"/>
	<path class="st0" d="M62,1.6c0,0-0.5-0.3-0.4,0c0.1,0.2,0.2,0.3,0.1,0.4c-0.2,0.1-0.3,0.2,0,0.2c0.3-0.1,0.1,0,0.3,0.1
		c0.3,0.3,0.1-0.2,0.2-0.2c0.1-0.1,0.2,0,0.3,0c0.1,0-0.2-0.3-0.2-0.3S62.4,1.2,62,1.6z"/>
	<path class="st0" d="M43.4,21.6c0,0-0.5-0.3-0.4,0c0.1,0.2,0.2,0.3,0.1,0.4c-0.2,0.1-0.3,0.2,0,0.2c0.3-0.1,0.1,0,0.3,0.1
		c0.3,0.3,0.1-0.2,0.2-0.2c0.1-0.1,0.2,0,0.3,0c0.1,0-0.2-0.3-0.2-0.3S43.8,21.2,43.4,21.6z"/>
	<path class="st0" d="M98.2,68.2c0,0,5.9-3.8,4.3-4.2c-1.6-0.4-2.6,1-2.6,1s1.2-5.3-0.6-3.5C97.6,63.3,98.2,68.2,98.2,68.2z"/>
	<path class="st0" d="M94,7.7c0,0,1.7-3.6,0.8-3.3c-0.9,0.3-0.9,1.3-0.9,1.3s-1-2.9-1.3-1.5C92.2,5.5,94,7.7,94,7.7z"/>
</g>
<g>
	<polygon class="st1" points="53.7,24.1 56.6,27.4 59.1,25.5 59.1,46.4 64.5,46.4 64.5,18.7 60.2,18.7 	"/>
	<path class="st1" d="M65.3,18.7v27.7h29V18.7H65.3z M91,39.2v2.1h1.1v3c-1.5,0-1.6-1-1.6-1.9c0-0.6,0-1.2,0-1.9c0-1.4,0-2.8,0-3.4
		c0-1.1,0-1.6,1.7-1.6c0.8,0,1.2,0,1.5,0v3.7H91z M90.7,33c-1.6,0-2.7,1.3-2.7,3.1s0,5.7,0,7.4c0,1.1,0.4,1.9,1.1,2.3h-1.5V33.3
		c0-0.2-0.1-0.3-0.3-0.3h-2c-0.2,0-0.3,0.1-0.3,0.3v6.5l-2.1-6.6c0-0.1-0.2-0.2-0.3-0.2h-2.2c-0.2,0-0.3,0.1-0.3,0.3v12.5h-3.7
		c0.4-0.2,0.7-0.5,1-0.9c1.2-1.2,1.7-3,1.7-5.2V25.5c0-2.2-0.6-4-1.7-5.2c-0.3-0.4-0.7-0.7-1.2-0.9H80V32c0,0.2,0.1,0.3,0.3,0.3h2.1
		c0.2,0,0.3-0.1,0.3-0.3v-5.5l1.4,5.5c0,0.1,0.2,0.2,0.3,0.2h1.7c0.1,0,0.3-0.1,0.3-0.2l1.2-5.3V32c0,0.2,0.1,0.3,0.3,0.3h2.1
		c0.2,0,0.3-0.1,0.3-0.3V19.3h0.7c0,0,0,0,0,0V32c0,0.2,0.1,0.3,0.3,0.3h2.1c0,0,0,0,0,0v0.8C93.1,33,91.9,33,90.7,33z M84.7,45.8
		h-2.1v-6.2L84.7,45.8z M70.4,25.2c0-1.7,0.6-2.5,2-2.5c1.4,0,2,0.8,2,2.5V40c0,1.7-0.6,2.5-2,2.5c-1.4,0-2-0.8-2-2.5V25.2z
		 M83.7,19.3h3.2l-1.6,7.6L83.7,19.3z M68.5,19.3c-0.4,0.3-0.8,0.6-1.2,0.9c-0.7,0.7-1.1,1.6-1.4,2.7v-3.6H68.5z M65.9,42.3
		c0.3,1.1,0.8,1.9,1.4,2.7c0.3,0.3,0.7,0.6,1,0.9h-2.5V42.3z"/>
</g>
<g>
	<path class="st3" d="M62.7,48.2C62.7,48.2,62.8,48.3,62.7,48.2l-1.2,2.3v1.5c0,0,0,0.1-0.1,0.1h-1c0,0-0.1,0-0.1-0.1v-1.5l-1.3-2.3
		c0-0.1,0-0.1,0.1-0.1h1.2c0.1,0,0.1,0,0.1,0.1l0.5,1l0.5-1c0-0.1,0.1-0.1,0.1-0.1H62.7z"/>
	<path class="st3" d="M66.7,51.1C66.8,51.1,66.8,51.1,66.7,51.1l0.1,0.9c0,0,0,0.1-0.1,0.1h-2.6c0,0-0.1,0-0.1-0.1v-3.7
		c0-0.1,0-0.1,0.1-0.1h2.6c0.1,0,0.1,0,0.1,0.1v0.9c0,0.1,0,0.1-0.1,0.1h-1.5v0.4h1.2c0.1,0,0.1,0,0.1,0.1l-0.1,0.8
		c0,0,0,0.1-0.1,0.1h-1.1v0.5H66.7z"/>
	<path class="st3" d="M70.2,52.2c-1.2,0-2-0.8-2-2c0-1.2,0.8-2,2-2c1.2,0,2,0.8,2,2C72.2,51.4,71.4,52.2,70.2,52.2z M70.2,49.3
		c-0.5,0-0.8,0.4-0.8,0.9c0,0.5,0.3,0.9,0.8,0.9s0.8-0.4,0.8-0.9C71,49.6,70.7,49.3,70.2,49.3z"/>
	<path class="st3" d="M75.9,51.1C76,51.1,76,51.1,75.9,51.1l0,0.9c0,0,0,0.1-0.1,0.1h-2c0,0-0.1,0-0.1-0.1v-3.7c0,0,0-0.1,0.1-0.1h1
		c0,0,0.1,0,0.1,0.1v2.8H75.9z"/>
	<path class="st3" d="M81.8,48.2C81.8,48.2,81.9,48.3,81.8,48.2l0.1,3.8c0,0,0,0.1-0.1,0.1h-1c0,0-0.1,0-0.1-0.1v-1.7L80.1,52
		c0,0-0.1,0.1-0.1,0.1h-0.6c-0.1,0-0.1,0-0.1-0.1l-0.6-1.7v1.7c0,0,0,0.1-0.1,0.1h-1c0,0-0.1,0-0.1-0.1v-3.7c0,0,0-0.1,0.1-0.1h1.2
		c0.1,0,0.2,0.1,0.2,0.1l0.8,2.2l0.8-2.2c0-0.1,0.1-0.1,0.2-0.1H81.8z"/>
	<path class="st3" d="M84.5,48.2C84.5,48.2,84.6,48.3,84.5,48.2l0.1,3.8c0,0,0,0.1-0.1,0.1h-1c0,0-0.1,0-0.1-0.1v-3.7
		c0,0,0-0.1,0.1-0.1H84.5z"/>
	<path class="st3" d="M89.4,48.2C89.4,48.2,89.4,48.3,89.4,48.2l0.1,3.8c0,0,0,0.1-0.1,0.1h-1c0,0-0.1,0-0.1-0.1l-1-1.8v1.8
		c0,0,0,0.1-0.1,0.1h-1c0,0-0.1,0-0.1-0.1v-3.7c0,0,0-0.1,0.1-0.1h1c0.1,0,0.1,0,0.1,0.1l1,1.8v-1.7c0,0,0-0.1,0.1-0.1H89.4z"/>
	<path class="st3" d="M94.3,49.7C94.4,49.7,94.4,49.8,94.3,49.7l0.1,1.9c0,0.1,0,0.1-0.1,0.1c-0.3,0.3-0.9,0.5-1.4,0.5
		c-1.2,0-2-0.8-2-2c0-1.2,0.8-2,2-2c0.4,0,0.9,0.1,1.2,0.3c0,0,0.1,0.1,0.1,0.1l-0.3,0.8c0,0-0.1,0.1-0.1,0
		c-0.2-0.1-0.5-0.2-0.8-0.2c-0.5,0-0.9,0.4-0.9,0.9c0,0.6,0.4,0.9,0.9,0.9c0.2,0,0.4,0,0.4-0.1v-0.3h-0.5c-0.1,0-0.1,0-0.1-0.1
		l-0.1-0.8c0-0.1,0-0.1,0.1-0.1H94.3z M93.4,50.9L93.4,50.9L93.4,50.9z"/>
</g>
<g>
	<path class="st2" d="M94.6,32.7c0.7-0.2,1.3-0.4,1.5-0.2c0.2,0.2,0.4,0.4,0.5,0.7c0.4,0.1,0.8,0.2,1.3,0.3c0.4,0.1,0.9,0.1,1.3,0.2
		c0.1-0.3,0.2-0.5,0.2-0.7c-1.8-0.3-3.5-0.6-5.3-1c-0.5-0.1-1-0.2-1.4-0.3c-0.1,0.2-0.2,0.4-0.3,0.6c0,0,0,0,0,0
		C93.1,32.3,93.9,32.5,94.6,32.7z"/>
	<path class="st2" d="M92.2,32.8c0.4,0.1,0.8,0.2,1.3,0.3c0.2-0.1,0.3-0.1,0.5-0.2c-0.6-0.1-1.2-0.2-1.7-0.4
		C92.2,32.6,92.2,32.7,92.2,32.8z"/>
	<path class="st2" d="M92.3,32.4c0.1,0,0.1,0,0.2,0c0.6,0.1,1.1,0.3,1.7,0.4c0.1,0,0.2-0.1,0.3-0.1c-0.7-0.2-1.4-0.3-2.1-0.5
		C92.3,32.3,92.3,32.4,92.3,32.4z"/>
	<path class="st2" d="M98.9,34.2c0.1-0.1,0.1-0.3,0.2-0.4c-0.4-0.1-0.9-0.1-1.3-0.2c-0.4,0-0.7-0.1-1.1-0.1c0,0.1,0.1,0.3,0.1,0.4
		c0.1,0,0.2,0,0.3,0.1C97.7,34,98.3,34.1,98.9,34.2z"/>
	<path class="st2" d="M100.3,30.9c0.6,0.1,1.3,0.3,1.9,0.4c0-0.1-0.2-0.3-0.3-0.5c-1.6-0.2-3.2-0.5-4.8-0.9C96,29.6,95,29.3,93.9,29
		c0.1,0.2,0.2,0.4,0.3,0.5c0.9,0.2,1.8,0.4,2.7,0.6C98.1,30.4,99.2,30.7,100.3,30.9z"/>
	<path class="st2" d="M101.1,30.6c0.2,0,0.5,0.1,0.7,0.1c-0.3-0.2-0.6-0.5-1.1-0.8c-2.4-0.3-4.8-0.7-7.1-1.4
		c0.1,0.2,0.2,0.3,0.2,0.4c0,0,0.1,0,0.1,0C96.3,29.6,98.7,30.2,101.1,30.6z"/>
	<path class="st2" d="M97,28.3c-1.1-0.3-2.2-0.6-3.3-0.9c0,0,0,0,0,0c0,0,0,0,0,0c-0.3-0.1-0.5-0.2-0.8-0.2c0.1,0.2,0.2,0.5,0.4,0.7
		c0.6,0.1,1.2,0.3,1.8,0.4c1,0.3,2,0.5,3,0.7c0.6,0.1,1.3,0.2,1.9,0.3c0-0.1,0-0.2,0-0.4C99,28.8,98,28.5,97,28.3z"/>
	<path class="st2" d="M93.3,28c0,0,0,0.1,0.1,0.1c0.1,0.1,0.1,0.2,0.2,0.3c0.6,0.2,1.1,0.3,1.7,0.5c1.7,0.4,3.5,0.7,5.2,0.9
		c-0.2-0.1-0.3-0.2-0.5-0.3c0,0,0,0,0-0.1c-0.8-0.1-1.5-0.3-2.3-0.4C96.2,28.7,94.8,28.3,93.3,28z"/>
	<path class="st2" d="M100,25.2c-0.1-0.4-0.4-0.5-0.8-0.2C99.4,25,99.7,25.1,100,25.2z"/>
	<path class="st2" d="M98.4,25.8c0.6,0.1,1.2,0.2,1.7,0.3c0-0.3-0.1-0.6-0.1-0.8c-0.3-0.1-0.6-0.2-0.9-0.3c-0.1,0.1-0.1,0.1-0.2,0.2
		C98.7,25.4,98.5,25.6,98.4,25.8z"/>
	<path class="st2" d="M98.3,25.9c-0.1,0.1-0.2,0.3-0.4,0.4c0.7,0.1,1.5,0.2,2.2,0.4c0-0.2,0-0.4,0-0.5C99.5,26.1,98.9,26,98.3,25.9z
		"/>
	<path class="st2" d="M97.5,26.8c-0.1,0.1-0.2,0.2-0.3,0.3c1,0.2,2,0.4,2.9,0.8c0-0.1,0-0.3,0-0.4C99.3,27.2,98.4,27,97.5,26.8z"/>
	<path class="st2" d="M100.1,27.3c0-0.2,0-0.3,0-0.5c-0.7-0.2-1.5-0.4-2.3-0.5c-0.1,0.1-0.2,0.2-0.3,0.3
		C98.4,26.9,99.3,27.1,100.1,27.3z"/>
	<path class="st2" d="M96.8,27.4c0.5,0.1,1,0.3,1.5,0.4c0.6,0.2,1.2,0.3,1.8,0.5c0-0.1,0-0.2,0-0.3c-0.3-0.1-0.7-0.2-1-0.4
		c-0.6-0.2-1.3-0.3-2-0.5C97,27.2,96.9,27.3,96.8,27.4z"/>
	<path class="st2" d="M96.7,27.5c-0.2,0.1-0.3,0.1-0.5,0.2c1.3,0.3,2.5,0.7,3.8,1c0-0.1,0-0.2,0-0.3C98.9,28.1,97.8,27.8,96.7,27.5z
		"/>
	<path class="st2" d="M94.6,27c0,0-0.1,0-0.1,0c-0.6-0.1-1.2-0.3-1.8-0.4c0,0.1,0,0.3,0.1,0.5c0.3,0.1,0.6,0.2,0.9,0.3
		c0.6,0,1.1,0,1.7,0.2c-0.1,0-0.1-0.1-0.2-0.1C95.1,27.2,94.9,27.1,94.6,27z"/>
	<path class="st2" d="M94.3,26.8c-0.3-0.2-0.6-0.3-0.8-0.4c-0.2,0-0.5-0.1-0.7-0.1c-0.1,0-0.1,0.1-0.1,0.2
		C93.3,26.6,93.8,26.7,94.3,26.8z"/>
	<path class="st2" d="M98.1,28.3c-1.3-0.4-2.7-0.9-4-0.9c0,0,0.1,0,0.1,0c1.1,0.3,2.1,0.6,3.2,0.9c0.9,0.2,1.7,0.4,2.6,0.5
		c0,0,0-0.1,0-0.1C99.4,28.6,98.8,28.4,98.1,28.3z"/>
	<path class="st2" d="M95.9,31.5c1,0.2,2,0.4,3,0.6c0.5,0.1,1.1,0.2,1.6,0.3c0.4-0.1,0.8-0.1,1.1-0.3c-0.2-0.1-0.5-0.1-0.7-0.2
		c-0.9-0.2-1.7-0.4-2.6-0.5c-0.5-0.1-0.9-0.2-1.4-0.3c-0.7-0.1-1.4-0.3-2.1-0.5c-0.1,0-0.2-0.1-0.3-0.1c-0.3-0.1-0.6-0.1-0.8-0.2
		c-0.1,0.1-0.3,0.3-0.5,0.6C94.1,31,95,31.2,95.9,31.5z"/>
	<path class="st2" d="M100.2,32.4c-0.6-0.1-1.3-0.3-1.9-0.4c-1-0.2-2-0.4-2.9-0.6c-0.8-0.2-1.5-0.4-2.3-0.6
		c-0.1,0.1-0.2,0.3-0.3,0.4c0,0.1-0.1,0.1-0.1,0.2c1.7,0.4,3.4,0.7,5.2,1c0.5,0.1,1,0.2,1.5,0.3c0.1-0.2,0.1-0.3,0.1-0.3
		S99.8,32.5,100.2,32.4z"/>
	<path class="st2" d="M94.5,30.4c0.5,0.1,1,0.3,1.5,0.4c0.4,0.1,0.8,0.2,1.1,0.3c0.7,0.1,1.4,0.2,2.1,0.3c1,0.1,1.9,0.3,2.9,0.4
		c0.1-0.1,0.1-0.2,0.1-0.3c-2-0.4-3.9-0.8-5.9-1.2c-0.7-0.2-1.5-0.3-2.2-0.5c0.1,0.2-0.1,0.2-0.4,0.5C94,30.2,94.3,30.3,94.5,30.4z"
		/>
	<path class="st2" d="M101.8,32.1c0.2-0.1,0.3-0.2,0.4-0.2c-0.9-0.1-1.9-0.2-2.8-0.3c0.7,0.1,1.5,0.3,2.2,0.5
		C101.6,32,101.7,32.1,101.8,32.1z"/>
	<path class="st2" d="M97.3,34.9c-0.1,0-0.3-0.1-0.4-0.1c0.1,0.5,0.2,1,0.5,1.3c0.3,0.3,0.7-0.1,1.1-0.8
		C98.1,35.1,97.7,35,97.3,34.9z"/>
	<path class="st2" d="M93.3,33.2c-0.4-0.1-0.7-0.2-1.1-0.3C92.2,33.4,92.7,33.3,93.3,33.2z"/>
	<path class="st2" d="M98.9,34.3c-0.7-0.1-1.4-0.2-2-0.4c0,0-0.1,0-0.1,0c0,0.3,0.1,0.5,0.1,0.8c0.6,0.1,1.1,0.3,1.7,0.4
		C98.7,34.8,98.8,34.6,98.9,34.3z"/>
</g>
</svg>
